<svg width="398" height="400" viewBox="0 0 398 400" fill="none" xmlns="http://www.w3.org/2000/svg">
<g clip-path="url(#clip0_1127_2179)">
<path d="M117.288 143.395C132.29 139.774 135.622 135.366 138.103 114.129C138.227 113.035 139.65 113.035 139.774 114.129C142.255 135.357 145.596 139.774 160.588 143.395C161.482 143.61 161.482 145.019 160.588 145.234C145.587 148.855 142.255 153.263 139.774 174.5C139.65 175.593 138.227 175.593 138.103 174.5C135.622 153.271 132.281 148.855 117.288 145.234C116.395 145.019 116.395 143.61 117.288 143.395Z" fill="white"/>
<path d="M124.227 378.44C134.357 375.996 136.615 373.013 138.285 358.678C138.368 357.941 139.327 357.941 139.41 358.678C141.089 373.021 143.338 376.004 153.468 378.44C154.072 378.581 154.072 379.534 153.468 379.683C143.338 382.127 141.08 385.11 139.41 399.445C139.327 400.182 138.368 400.182 138.285 399.445C136.606 385.102 134.357 382.119 124.227 379.683C123.623 379.542 123.623 378.589 124.227 378.44Z" fill="white"/>
<path d="M176.871 127.237C176.458 127.337 176.235 126.765 176.615 126.566C187.283 120.708 202.598 115.04 213.324 122.804C214.349 123.583 215.309 124.495 216.144 125.481C217.442 126.914 218.683 128.364 219.725 130.063C226.018 139.799 224.579 152.617 220.452 162.891C220.361 163.123 220.262 163.355 220.171 163.579C218.666 167.158 216.111 170.249 213.754 173.298C190.045 203.923 157.074 225.251 130.015 251.732C125.029 256.671 120.34 261.601 116.569 267.235C114.824 270.019 111.607 275.223 113.815 277.592C113.881 277.667 113.972 277.708 114.072 277.708C122.928 278.106 144.281 261.924 152.649 256.753C164.326 249.329 176.152 241.218 190.483 238.897C202.706 236.975 213.804 242.701 219.344 254.027C221.957 259.388 222.908 265.404 221.321 271.212C219.84 276.631 216.491 281.329 212.671 285.348C204.252 294.181 193.452 301.24 183.14 307.645C178.368 310.603 173.274 312.965 168.312 315.583C163.78 317.978 159.331 320.555 155.23 323.637C147.985 329.014 141.783 336.173 139.186 344.973C139.071 345.362 138.508 345.313 138.467 344.907C137.417 334.881 141.519 324.416 147.233 316.196C150.657 311.183 154.609 306.543 158.835 302.185C163.061 297.827 167.088 293.7 171.984 290.402C176.607 287.287 181.477 284.569 186.075 281.412C189.557 279.018 193.121 276.689 196.264 273.839C198.86 271.486 203.442 267.268 201.788 263.341C199.158 257.077 193.179 258.228 187.837 259.977C179.518 263.001 171.248 268.379 163.524 273.383C150.226 281.744 131.239 297.023 115.312 297.636C103.098 298.324 93.2321 287.9 93.2072 275.869C93.108 257.159 114.849 238.616 127.535 226.908C136.375 218.755 145.777 211.19 154.957 203.417C164.07 195.703 173.109 187.881 181.602 179.488C187.994 173.174 194.593 166.587 199.431 158.964C203.979 151.788 211.314 144.082 209.255 134.852C208.974 133.493 208.494 132.01 207.816 130.75C206.692 128.82 205.063 127.61 202.673 126.632C198.505 125.05 193.535 124.925 188.962 125.273C184.959 125.597 180.899 126.259 176.88 127.237H176.871Z" fill="white"/>
<path d="M116.486 170.034C104.363 196.342 73.8893 216.659 44.193 213.609C23.9654 211.438 10.0724 196.806 3.25824 178.593C-0.289438 166.894 -0.860044 154.481 1.17429 142.757C5.6399 119.59 18.6067 98.4608 34.8897 81.6819C43.0766 73.4043 52.0078 65.9553 61.1871 58.8875C92.8682 34.4773 129.924 18.3033 167.436 5.24479C172.794 3.41362 178.186 1.65702 183.669 0.0412722C184.206 -0.116159 184.769 0.190418 184.926 0.728999C185.042 1.12672 184.901 1.54101 184.612 1.79788C175.871 9.13915 166.518 15.6187 157.107 21.974C141.006 32.7539 117.33 47.511 100.7 57.9429C86.7238 66.701 72.6075 74.9869 59.219 84.5156C46.2191 94.1355 33.1778 103.971 22.2371 115.919C11.4865 127.61 3.96116 143.652 6.67361 159.768C7.4923 165.013 9.32816 170.042 11.8504 174.658L11.6602 174.235C14.629 178.477 18.0361 182.256 21.7326 185.338C32.5907 194.336 46.2604 197.535 60.0873 195.704C74.5344 193.773 89.3618 186.896 101.89 178.577C106.323 175.644 110.607 172.387 114.899 168.849C115.684 168.137 116.933 169.106 116.486 170.042V170.034Z" fill="white"/>
</g>
<path d="M139.572 99.2696C136.764 99.2696 134.154 98.8016 131.742 97.8656C129.366 96.8936 127.296 95.5436 125.532 93.8156C123.768 92.0876 122.4 90.0716 121.428 87.7676C120.456 85.4276 119.97 82.8716 119.97 80.0996C119.97 77.3276 120.456 74.7896 121.428 72.4856C122.4 70.1456 123.768 68.1116 125.532 66.3836C127.332 64.6556 129.42 63.3236 131.796 62.3876C134.172 61.4156 136.764 60.9296 139.572 60.9296C142.236 60.9296 144.72 61.3616 147.024 62.2256C149.364 63.0896 151.362 64.4036 153.018 66.1676L151.29 67.9496C149.67 66.3656 147.87 65.2316 145.89 64.5476C143.946 63.8276 141.876 63.4676 139.68 63.4676C137.268 63.4676 135.018 63.8816 132.93 64.7096C130.878 65.5376 129.078 66.7076 127.53 68.2196C126.018 69.7316 124.83 71.4956 123.966 73.5116C123.138 75.5276 122.724 77.7236 122.724 80.0996C122.724 82.4756 123.138 84.6716 123.966 86.6876C124.83 88.7036 126.018 90.4676 127.53 91.9796C129.078 93.4916 130.878 94.6616 132.93 95.4896C135.018 96.3176 137.268 96.7316 139.68 96.7316C141.876 96.7316 143.946 96.3896 145.89 95.7056C147.87 94.9856 149.67 93.8156 151.29 92.1956L153.018 93.9776C151.362 95.7416 149.364 97.0736 147.024 97.9736C144.72 98.8376 142.236 99.2696 139.572 99.2696Z" fill="white"/>
<path d="M161.378 98.9996V58.9316H164.078V98.9996H161.378Z" fill="white"/>
<path d="M186.906 99.2156C184.062 99.2156 181.542 98.6036 179.346 97.3796C177.186 96.1556 175.476 94.4636 174.216 92.3036C172.992 90.1436 172.38 87.6776 172.38 84.9056C172.38 82.0976 172.956 79.6316 174.108 77.5076C175.296 75.3476 176.916 73.6556 178.968 72.4316C181.02 71.2076 183.324 70.5956 185.88 70.5956C188.436 70.5956 190.722 71.1896 192.738 72.3776C194.79 73.5656 196.392 75.2396 197.544 77.3996C198.732 79.5236 199.326 81.9896 199.326 84.7976C199.326 84.9056 199.308 85.0316 199.272 85.1756C199.272 85.2836 199.272 85.4096 199.272 85.5536H174.378V83.4476H197.814L196.734 84.4736C196.77 82.2776 196.302 80.3156 195.33 78.5876C194.394 76.8236 193.116 75.4556 191.496 74.4836C189.876 73.4756 188.004 72.9716 185.88 72.9716C183.792 72.9716 181.92 73.4756 180.264 74.4836C178.644 75.4556 177.366 76.8236 176.43 78.5876C175.494 80.3156 175.026 82.2956 175.026 84.5276V85.0136C175.026 87.3176 175.53 89.3696 176.538 91.1696C177.582 92.9336 179.004 94.3196 180.804 95.3276C182.604 96.2996 184.656 96.7856 186.96 96.7856C188.76 96.7856 190.434 96.4616 191.982 95.8136C193.566 95.1656 194.898 94.1756 195.978 92.8436L197.544 94.6256C196.32 96.1376 194.772 97.2896 192.9 98.0816C191.064 98.8376 189.066 99.2156 186.906 99.2156Z" fill="white"/>
<path d="M224.654 98.9996V92.5736L224.546 91.6016V81.0176C224.546 78.3896 223.826 76.3916 222.386 75.0236C220.982 73.6556 218.912 72.9716 216.176 72.9716C214.232 72.9716 212.414 73.3136 210.722 73.9976C209.066 74.6456 207.644 75.4916 206.456 76.5356L205.106 74.5916C206.51 73.3316 208.202 72.3596 210.182 71.6756C212.162 70.9556 214.232 70.5956 216.392 70.5956C219.884 70.5956 222.566 71.4776 224.438 73.2416C226.31 75.0056 227.246 77.6336 227.246 81.1256V98.9996H224.654ZM214.502 99.2156C212.414 99.2156 210.596 98.8916 209.048 98.2436C207.536 97.5596 206.366 96.6056 205.538 95.3816C204.746 94.1576 204.35 92.7536 204.35 91.1696C204.35 89.7296 204.674 88.4336 205.322 87.2816C206.006 86.0936 207.122 85.1396 208.67 84.4196C210.218 83.6636 212.288 83.2856 214.88 83.2856H225.248V85.3916H214.934C212.018 85.3916 209.966 85.9316 208.778 87.0116C207.626 88.0916 207.05 89.4416 207.05 91.0616C207.05 92.8616 207.734 94.3016 209.102 95.3816C210.47 96.4616 212.396 97.0016 214.88 97.0016C217.256 97.0016 219.254 96.4616 220.874 95.3816C222.53 94.3016 223.754 92.7356 224.546 90.6836L225.302 92.5196C224.546 94.5716 223.25 96.2096 221.414 97.4336C219.614 98.6216 217.31 99.2156 214.502 99.2156Z" fill="white"/>
<path d="M252.14 70.5956C254.444 70.5956 256.442 71.0456 258.134 71.9456C259.862 72.8096 261.194 74.1416 262.13 75.9416C263.102 77.7056 263.588 79.9016 263.588 82.5296V98.9996H260.888V82.7456C260.888 79.5776 260.078 77.1656 258.458 75.5096C256.874 73.8536 254.642 73.0256 251.762 73.0256C249.566 73.0256 247.658 73.4756 246.038 74.3756C244.418 75.2756 243.176 76.5356 242.312 78.1556C241.484 79.7756 241.07 81.7196 241.07 83.9876V98.9996H238.37V70.8116H240.962V78.6416L240.584 77.7776C241.448 75.5456 242.87 73.7996 244.85 72.5396C246.83 71.2436 249.26 70.5956 252.14 70.5956Z" fill="white"/>
<path d="M285.504 99.2696C282.696 99.2696 280.032 98.8016 277.512 97.8656C275.028 96.8936 273.102 95.6516 271.734 94.1396L272.976 92.0876C274.272 93.4196 276.036 94.5536 278.268 95.4896C280.536 96.3896 282.93 96.8396 285.45 96.8396C287.97 96.8396 290.022 96.5156 291.606 95.8676C293.226 95.1836 294.414 94.2836 295.17 93.1676C295.962 92.0516 296.358 90.8096 296.358 89.4416C296.358 87.8216 295.926 86.5256 295.062 85.5536C294.198 84.5816 293.064 83.8076 291.66 83.2316C290.256 82.6556 288.726 82.1696 287.07 81.7736C285.414 81.3776 283.74 80.9636 282.048 80.5316C280.356 80.0636 278.808 79.4696 277.404 78.7496C276 78.0296 274.866 77.0576 274.002 75.8336C273.174 74.5736 272.76 72.9536 272.76 70.9736C272.76 69.1736 273.228 67.5176 274.164 66.0056C275.1 64.4936 276.558 63.2696 278.538 62.3336C280.518 61.3976 283.056 60.9296 286.152 60.9296C288.24 60.9296 290.292 61.2356 292.308 61.8476C294.36 62.4596 296.106 63.2876 297.546 64.3316L296.52 66.5456C294.936 65.4656 293.226 64.6736 291.39 64.1696C289.59 63.6296 287.844 63.3596 286.152 63.3596C283.74 63.3596 281.742 63.7016 280.158 64.3856C278.574 65.0696 277.404 65.9876 276.648 67.1396C275.892 68.2556 275.514 69.5156 275.514 70.9196C275.514 72.5396 275.928 73.8356 276.756 74.8076C277.62 75.7796 278.754 76.5536 280.158 77.1296C281.562 77.7056 283.11 78.1916 284.802 78.5876C286.494 78.9836 288.168 79.4156 289.824 79.8836C291.48 80.3156 293.01 80.8916 294.414 81.6116C295.818 82.3316 296.952 83.3036 297.816 84.5276C298.68 85.7516 299.112 87.3356 299.112 89.2796C299.112 91.0436 298.626 92.6996 297.654 94.2476C296.682 95.7596 295.188 96.9836 293.172 97.9196C291.192 98.8196 288.636 99.2696 285.504 99.2696Z" fill="white"/>
<path d="M307.611 98.9996V58.9316H310.311V98.9996H307.611Z" fill="white"/>
<path d="M339.457 98.9996V92.5736L339.349 91.6016V81.0176C339.349 78.3896 338.629 76.3916 337.189 75.0236C335.785 73.6556 333.715 72.9716 330.979 72.9716C329.035 72.9716 327.217 73.3136 325.525 73.9976C323.869 74.6456 322.447 75.4916 321.259 76.5356L319.909 74.5916C321.313 73.3316 323.005 72.3596 324.985 71.6756C326.965 70.9556 329.035 70.5956 331.195 70.5956C334.687 70.5956 337.369 71.4776 339.241 73.2416C341.113 75.0056 342.049 77.6336 342.049 81.1256V98.9996H339.457ZM329.305 99.2156C327.217 99.2156 325.399 98.8916 323.851 98.2436C322.339 97.5596 321.169 96.6056 320.341 95.3816C319.549 94.1576 319.153 92.7536 319.153 91.1696C319.153 89.7296 319.477 88.4336 320.125 87.2816C320.809 86.0936 321.925 85.1396 323.473 84.4196C325.021 83.6636 327.091 83.2856 329.683 83.2856H340.051V85.3916H329.737C326.821 85.3916 324.769 85.9316 323.581 87.0116C322.429 88.0916 321.853 89.4416 321.853 91.0616C321.853 92.8616 322.537 94.3016 323.905 95.3816C325.273 96.4616 327.199 97.0016 329.683 97.0016C332.059 97.0016 334.057 96.4616 335.677 95.3816C337.333 94.3016 338.557 92.7356 339.349 90.6836L340.105 92.5196C339.349 94.5716 338.053 96.2096 336.217 97.4336C334.417 98.6216 332.113 99.2156 329.305 99.2156Z" fill="white"/>
<path d="M361.381 99.2156C358.897 99.2156 356.989 98.5316 355.657 97.1636C354.361 95.7956 353.713 93.9236 353.713 91.5476V64.6556H356.413V91.2776C356.413 93.0776 356.863 94.4636 357.763 95.4356C358.663 96.4076 359.959 96.8936 361.651 96.8936C363.415 96.8936 364.873 96.3716 366.025 95.3276L367.159 97.2176C366.439 97.9016 365.557 98.4056 364.513 98.7296C363.505 99.0536 362.461 99.2156 361.381 99.2156ZM348.529 73.1336V70.8116H365.377V73.1336H348.529Z" fill="white"/>
<path d="M385.135 99.2156C382.291 99.2156 379.771 98.6036 377.575 97.3796C375.415 96.1556 373.705 94.4636 372.445 92.3036C371.221 90.1436 370.609 87.6776 370.609 84.9056C370.609 82.0976 371.185 79.6316 372.337 77.5076C373.525 75.3476 375.145 73.6556 377.197 72.4316C379.249 71.2076 381.553 70.5956 384.109 70.5956C386.665 70.5956 388.951 71.1896 390.967 72.3776C393.019 73.5656 394.621 75.2396 395.773 77.3996C396.961 79.5236 397.555 81.9896 397.555 84.7976C397.555 84.9056 397.537 85.0316 397.501 85.1756C397.501 85.2836 397.501 85.4096 397.501 85.5536H372.607V83.4476H396.043L394.963 84.4736C394.999 82.2776 394.531 80.3156 393.559 78.5876C392.623 76.8236 391.345 75.4556 389.725 74.4836C388.105 73.4756 386.233 72.9716 384.109 72.9716C382.021 72.9716 380.149 73.4756 378.493 74.4836C376.873 75.4556 375.595 76.8236 374.659 78.5876C373.723 80.3156 373.255 82.2956 373.255 84.5276V85.0136C373.255 87.3176 373.759 89.3696 374.767 91.1696C375.811 92.9336 377.233 94.3196 379.033 95.3276C380.833 96.2996 382.885 96.7856 385.189 96.7856C386.989 96.7856 388.663 96.4616 390.211 95.8136C391.795 95.1656 393.127 94.1756 394.207 92.8436L395.773 94.6256C394.549 96.1376 393.001 97.2896 391.129 98.0816C389.293 98.8376 387.295 99.2156 385.135 99.2156Z" fill="white"/>
<defs>
<clipPath id="clip0_1127_2179">
<rect width="224" height="400" fill="white"/>
</clipPath>
</defs>
</svg>
