<svg width="61" height="109" viewBox="0 0 61 109" fill="none" xmlns="http://www.w3.org/2000/svg">
<path d="M31.9402 39.0754C36.0253 38.0887 36.9329 36.8875 37.6085 31.1005C37.6422 30.8024 38.0296 30.8024 38.0634 31.1005C38.739 36.8852 39.6488 38.0887 43.7317 39.0754C43.9749 39.1341 43.9749 39.5179 43.7317 39.5766C39.6465 40.5633 38.739 41.7645 38.0634 47.5515C38.0296 47.8496 37.6422 47.8496 37.6085 47.5515C36.9329 41.7668 36.023 40.5633 31.9402 39.5766C31.6969 39.5179 31.6969 39.1341 31.9402 39.0754Z" fill="#222222"/>
<path d="M33.8296 103.125C36.5883 102.459 37.2031 101.646 37.658 97.7396C37.6805 97.5386 37.9418 97.5386 37.9643 97.7396C38.4214 101.648 39.034 102.461 41.7927 103.125C41.9571 103.163 41.9571 103.423 41.7927 103.463C39.034 104.129 38.4192 104.942 37.9643 108.848C37.9418 109.049 37.6805 109.049 37.658 108.848C37.2008 104.94 36.5883 104.127 33.8296 103.463C33.6652 103.425 33.6652 103.165 33.8296 103.125Z" fill="#222222"/>
<path d="M48.1659 34.6726C48.0533 34.6997 47.9925 34.5439 48.0961 34.4897C51.0011 32.8934 55.1718 31.349 58.0927 33.4647C58.3719 33.6769 58.6332 33.9253 58.8606 34.194C59.2142 34.5846 59.552 34.9797 59.8358 35.4426C61.5495 38.0956 61.1577 41.5886 60.0339 44.3884C60.0091 44.4516 59.9821 44.5148 59.9574 44.5758C59.5475 45.5512 58.8516 46.3934 58.2098 47.2243C51.7533 55.5695 42.7746 61.3813 35.406 68.5975C34.0481 69.9433 32.7712 71.2867 31.7443 72.8221C31.2691 73.5807 30.3931 74.9987 30.9943 75.6444C31.0124 75.6648 31.0371 75.6761 31.0642 75.6761C33.4761 75.7844 39.2907 71.3748 41.5698 69.9658C44.7496 67.9428 47.9699 65.7323 51.8727 65.1001C55.2011 64.5762 58.2233 66.1364 59.7322 69.223C60.4438 70.6838 60.7028 72.3231 60.2704 73.9059C59.8673 75.3825 58.9552 76.6628 57.9148 77.7578C55.6223 80.1648 52.6811 82.0885 49.8729 83.8338C48.5735 84.6399 47.1862 85.2834 45.835 85.9969C44.6009 86.6494 43.3894 87.3516 42.2724 88.1916C40.2996 89.657 38.6106 91.6078 37.9035 94.0057C37.872 94.1118 37.7188 94.0982 37.7076 93.9876C37.4216 91.2555 38.5386 88.4038 40.0947 86.164C41.027 84.798 42.1035 83.5335 43.2543 82.3459C44.405 81.1582 45.5018 80.0338 46.8349 79.1352C48.0938 78.2862 49.4202 77.5456 50.6723 76.6853C51.6204 76.0328 52.5911 75.3983 53.4468 74.6216C54.1539 73.9804 55.4016 72.8311 54.9512 71.7609C54.235 70.0539 52.6068 70.3677 51.152 70.8442C48.8865 71.6683 46.6345 73.1337 44.5311 74.4974C40.9099 76.7757 35.7393 80.9392 31.402 81.1063C28.0758 81.2937 25.3891 78.4533 25.3824 75.1748C25.3553 70.0765 31.2758 65.0233 34.7304 61.8329C37.1378 59.6111 39.6983 57.5497 42.1981 55.4317C44.6798 53.3296 47.1412 51.1982 49.454 48.9109C51.1948 47.1904 52.9919 45.3954 54.3093 43.3181C55.5479 41.3628 57.5455 39.2629 56.9847 36.7476C56.9081 36.3773 56.7775 35.9732 56.5929 35.63C56.2866 35.1039 55.8429 34.7742 55.1921 34.5078C54.0571 34.0766 52.7037 34.0427 51.4583 34.1375C50.3683 34.2256 49.2626 34.4062 48.1681 34.6726H48.1659Z" fill="#222222"/>
<path d="M31.7217 46.3343C28.4202 53.5031 20.1216 59.0395 12.0346 58.2086C6.52625 57.617 2.74288 53.6295 0.88723 48.6667C-0.0788797 45.4785 -0.234268 42.0962 0.319725 38.9013C1.53581 32.5882 5.06695 26.8306 9.50114 22.2583C11.7306 20.0027 14.1628 17.9728 16.6625 16.0468C25.2899 9.39507 35.3812 4.98765 45.5962 1.42921C47.0555 0.930211 48.5239 0.451537 50.0169 0.0112467C50.1633 -0.0316534 50.3164 0.0518888 50.3592 0.198652C50.3908 0.307031 50.3525 0.419926 50.2737 0.489921C47.8933 2.49042 45.3463 4.25609 42.7835 5.9879C38.3988 8.92543 31.9514 12.9467 27.4226 15.7894C23.6167 18.176 19.7725 20.4339 16.1265 23.0305C12.5864 25.6519 9.03498 28.3321 6.05558 31.5879C3.12797 34.7738 1.07865 39.1451 1.81731 43.5367C2.04025 44.966 2.5402 46.3365 3.22706 47.5942L3.17526 47.479C3.98373 48.6351 4.91156 49.6647 5.9182 50.5046C8.87508 52.9567 12.5976 53.8282 16.363 53.3292C20.2972 52.8032 24.3351 50.9291 27.7469 48.6622C28.9539 47.8629 30.1205 46.9755 31.2893 46.0114C31.5032 45.8172 31.8433 46.0814 31.7217 46.3365V46.3343Z" fill="#222222"/>
</svg>
